<svg xmlns="http://www.w3.org/2000/svg" width="81" height="87" viewBox="0 0 81 87">
  <defs>
    <linearGradient id="icon-small-front-a" x1="50%" x2="50%" y1="0%" y2="100%">
      <stop offset=".048%" stop-color="#997660"/>
      <stop offset="100%" stop-color="#7D6351"/>
    </linearGradient>
    <linearGradient id="icon-small-front-b" x1="50%" x2="50%" y1="0%" y2="72.409%">
      <stop offset="0%" stop-color="#DBB286"/>
      <stop offset="100%" stop-color="#95745E"/>
    </linearGradient>
    <linearGradient id="icon-small-front-c" x1="83.774%" x2="0%" y1="42.546%" y2="52.759%">
      <stop offset="0%" stop-color="#7D6350"/>
      <stop offset="100%" stop-color="#AE906C"/>
    </linearGradient>
    <linearGradient id="icon-small-front-d" x1="2.307%" y1="42.596%" y2="53.256%">
      <stop offset="0%" stop-color="#856954"/>
      <stop offset="100%" stop-color="#AE906C"/>
    </linearGradient>
    <linearGradient id="icon-small-front-e" x1="50%" x2="50%" y1="0%" y2="100%">
      <stop offset="0%" stop-color="#DDB487"/>
      <stop offset="100%" stop-color="#755C4B"/>
    </linearGradient>
  </defs>
  <g fill="none" fill-rule="evenodd" transform="translate(1 1)">
    <path stroke="url(#icon-small-front-a)" stroke-width="1.552" d="M58.0001304,9 C68.1963478,15.2566989 75,26.5285409 75,39.3942806 C75,59.0591646 59.1058783,75 39.5,75 C19.8935043,75 4,59.0591646 4,39.3942806 C4,26.6740599 10.6505391,15.5112024 20.6553652,9.21425355"/>
    <path stroke="url(#icon-small-front-b)" stroke-width="1.6" d="M67.3819515,12.595666 C65.2988406,12.4848215 63.4501592,12.4389549 61.1504556,10.7488957 L60.6051519,10.3596661 C56.3866929,7.40254036 51.515908,5.31624419 46.2527084,4.34667387 C44.6320862,4.04790352 40.8327976,4.24347388 39.6039532,8.2039329 C38.3744718,4.24347388 34.5745461,4.04790352 32.953924,4.34667387 C27.6907243,5.31624419 22.8199394,7.40254036 18.6014804,10.3596661 L18.0568137,10.7488957 C15.7564731,12.4389549 13.9077918,12.4848215 11.8246808,12.595666"/>
    <path stroke="url(#icon-small-front-c)" stroke-width="1.6" d="M67.3819515,67.1529367 C67.2252404,69.1564181 66.9538627,71.3669365 64.2802184,73.3353808 C62.9462629,74.3081363 61.7027667,74.6801659 60.5809445,74.7642548 C59.4502039,74.8375141 58.436678,74.6374844 57.4365299,74.3750252 C48.553049,71.9593809 39.6026791,72.7563142 32.3748573,77.9959435 C32.3748573,77.9959435 39.6026791,79.4044323 39.6026791,85.1689801"/>
    <path stroke="url(#icon-small-front-d)" stroke-width="1.6" d="M39.6042717,85.1691075 C39.6042717,79.4045597 46.8320935,77.9960709 46.8320935,77.9960709 C39.6042717,72.7564416 30.6539019,71.9595083 21.7704209,74.3751526 C20.7702728,74.6376118 19.756747,74.8376415 18.6253693,74.7643822 C17.5041841,74.6802933 16.2606879,74.3082637 14.9267324,73.3355082 C12.2524511,71.3670639 11.9817104,69.1559085 11.8249993,67.1530641"/>
    <path stroke="url(#icon-small-front-e)" stroke-width="1.6" d="M62.9917474,7.81325879 L62.9936585,7.81325879 L62.8121029,7.67438473 C62.7286511,7.61386621 62.642014,7.55653288 62.5579252,7.49601437 C62.3266807,7.32911067 62.0928882,7.16475513 61.8578215,7.00294773 C61.6909178,6.88764403 61.5240141,6.77297737 61.3558363,6.66085886 C61.1124882,6.49905146 60.8653179,6.34042925 60.6181475,6.18371815 C60.454429,6.07924408 60.2907105,5.97413298 60.1244438,5.87220706 C59.8575253,5.70785151 59.5867846,5.54986634 59.3154068,5.39188116 C59.1650661,5.30460709 59.0166365,5.21478487 58.8643846,5.12942192 C58.5229328,4.93703674 58.1770217,4.75102194 57.8291995,4.56882936 C57.7451106,4.52423677 57.6622958,4.47709603 57.5769329,4.43314048 C57.1603107,4.21845901 56.7398662,4.01078495 56.3149626,3.81075533 L56.3105033,3.81075533 C54.8803552,3.13740722 53.4037035,2.54687392 51.8856443,2.04743692 L51.8697184,2.04234062 C42.0625338,-1.65884435 39.5819117,1.75057767 39.5819117,1.75057767 C39.5819117,1.75057767 37.1057489,-1.64610361 27.2979273,2.05508136 L27.224031,2.0799258 C25.4594385,2.66472577 23.7534534,3.37884424 22.1092609,4.19807382 L22.0926979,4.19807382 C21.9952313,4.24648864 21.8990387,4.29999974 21.801572,4.34968863 C21.6238387,4.44014788 21.4486535,4.53188121 21.2728313,4.62488861 C21.0180165,4.75930342 20.7657499,4.89626637 20.5147573,5.03641451 C20.3421203,5.1326071 20.1694832,5.22943673 19.9981203,5.32817746 C19.7452166,5.47469597 19.494224,5.62439966 19.2451426,5.77601447 C19.0820611,5.87475521 18.9189796,5.97222187 18.7578093,6.07351075 C18.4934389,6.23914037 18.2328908,6.41050332 17.9723426,6.58250331 C17.8321945,6.67487368 17.6901352,6.76533293 17.5512612,6.86025144 C17.2231871,7.08321439 16.9002094,7.31191068 16.5791427,7.54442918 C16.5186242,7.58838473 16.4555575,7.62979214 16.395039,7.67438473 L16.377202,7.6877625 C6.64009146,14.8372287 0.318773314,26.3675984 0.318773314,39.3739828 C0.318773314,61.070826 17.9073649,78.6587805 39.603571,78.6587805 C61.2997771,78.6587805 78.8883686,61.070826 78.8883686,39.3739828 C78.8883686,26.4408577 72.6358505,14.9716436 62.9917474,7.81325879 Z"/>
    <path fill="#AE906C" d="M39.6024243,85.1691075 C39.6024243,79.4045597 32.3752396,77.9960709 32.3752396,77.9960709 L32.3752396,77.9954339 C34.7182616,78.4311672 37.1339059,78.6585894 39.6036984,78.6585894 C42.0728538,78.6585894 44.4884981,78.4311672 46.8315202,77.9954339 L46.8321572,77.9960709 C46.8321572,77.9960709 39.6043354,79.4045597 39.6043354,85.1691075 L39.6024243,85.1691075 Z"/>
    <path stroke="#AE906C" stroke-width="1.6" d="M39.6024243,85.1691075 C39.6024243,79.4045597 32.3752396,77.9960709 32.3752396,77.9960709 L32.3752396,77.9954339 C34.7182616,78.4311672 37.1339059,78.6585894 39.6036984,78.6585894 C42.0728538,78.6585894 44.4884981,78.4311672 46.8315202,77.9954339 L46.8321572,77.9960709 C46.8321572,77.9960709 39.6043354,79.4045597 39.6043354,85.1691075 L39.6024243,85.1691075 Z"/>
    <path stroke="#AE906C" stroke-linecap="round" stroke-linejoin="round" stroke-width="1.6" d="M32.375367 77.995625C28.621945 77.2974324 25.0704637 76.0660399 21.7737972 74.3823511M46.8262965 77.9943509C50.5778074 77.2961584 54.1407553 76.0571214 57.4361477 74.3747067"/>
  </g>
</svg>
